<svg version="1.2" baseProfile="tiny-ps" xmlns="http://www.w3.org/2000/svg" width="24" height="22"><style/><path id="Forma 1" d="M1.81 2.63h2.34l3.32 12.04c.1.35.42.59.79.59h10.21c.33 0 .61-.19.75-.48l3.71-8.56c.11-.26.09-.55-.06-.78a.819.819 0 00-.68-.37H10.9c-.45 0-.81.37-.81.82 0 .45.36.82.81.82h10.04l-3.01 6.92H8.87L5.54 1.6a.802.802 0 00-.78-.6H1.81a.82.82 0 00-.81.81c0 .45.37.82.81.82zM7.48 21c1.02 0 1.85-.83 1.85-1.85S8.5 17.3 7.48 17.3a1.85 1.85 0 000 3.7zm11.53 0h.14c.49-.04.94-.26 1.26-.64.33-.37.48-.84.45-1.34a1.855 1.855 0 00-1.97-1.72c-1.02.07-1.78.97-1.71 1.97.07.97.87 1.73 1.83 1.73z" fill="#fff"/></svg>