<svg version="1.2" baseProfile="tiny-ps" xmlns="http://www.w3.org/2000/svg" width="24" height="20"><style/><path id="Forma 1" d="M22.99 6.82a6.19 6.19 0 00-1.85-4.1A5.853 5.853 0 0017 1c-2.31 0-3.95 1.78-4.82 2.74-.05.06-.11.12-.16.17-.03-.03-.06-.06-.08-.09C11.13 2.9 9.46 1 7 1c-1.55 0-3.02.61-4.14 1.72a6.19 6.19 0 00-1.85 4.1c-.08 1.54.31 2.88 1.27 4.34.86 1.31 3.1 3.37 4.76 4.75C8.75 17.32 10.99 19 12.01 19c1.03 0 3.27-1.68 4.96-3.09 1.65-1.37 3.88-3.43 4.75-4.75.65-.99 1.38-2.37 1.27-4.34zm-2.38 3.61c-.63.96-2.41 2.74-4.43 4.42-2.4 2-3.83 2.79-4.17 2.82-.34-.03-1.77-.83-4.19-2.84-2.03-1.68-3.81-3.45-4.43-4.4-.8-1.21-1.12-2.3-1.06-3.54C2.47 4.37 4.56 2.32 7 2.32c1.86 0 3.21 1.54 3.94 2.37.43.49.66.76 1.06.76.41 0 .67-.29 1.15-.81.79-.87 2.12-2.32 3.85-2.32 2.44 0 4.53 2.05 4.67 4.57.07 1.26-.25 2.31-1.06 3.54z" fill="#a3bbc8"/></svg>