<svg version="1.2" baseProfile="tiny-ps" xmlns="http://www.w3.org/2000/svg" width="55" height="42"><style/><path id="Path 324" fill-rule="evenodd" d="M3.09 29.83c.09-.18 6.41-12.94 6.58-13.26.17-.33.38-.39.51-.45L45.37 2.07s.57-.19.97.05c.39.24.45.64.45.64l6.25 37.08s.09.48-.31.81c-.41.33-.91.21-.91.21l-48.04-9.8c-.02 0-.38-.07-.62-.39-.24-.31-.16-.66-.07-.84zm35.94-6.02l-10.34 2.15 20.05 11.15-9.71-13.3zM5.74 28.92l17.83-3.71-12.52-6.98-5.31 10.69zm20.57-4.28l12.37-2.58 5.56-17.59-31.53 12.59 13.6 7.58zM45.49 7.13l-4.91 15.52 9.78 13.4-4.87-28.92zM25.95 26.54L8.43 30.19l38.05 7.76-20.53-11.41z" fill="#a3bbc8"/></svg>