<svg version="1.2" baseProfile="tiny-ps" xmlns="http://www.w3.org/2000/svg" viewBox="0 0 22 23" width="22" height="23">
	<title>Ellipse 32</title>
	<style>
		tspan { white-space:pre }
		.shp0 { fill: #ffffff } 
	</style>
	<path id="Ellipse 32" class="shp0" d="M3.15 5.88C1.96 5.88 1 4.92 1 3.74C1 2.55 1.96 1.59 3.15 1.59C4.33 1.59 5.29 2.55 5.29 3.74C5.29 4.92 4.33 5.88 3.15 5.88ZM3.15 13.75C1.96 13.75 1 12.79 1 11.6C1 10.42 1.96 9.46 3.15 9.46C4.33 9.46 5.29 10.42 5.29 11.6C5.29 12.79 4.33 13.75 3.15 13.75ZM3.15 21.62C1.96 21.62 1 20.66 1 19.47C1 18.29 1.96 17.33 3.15 17.33C4.33 17.33 5.29 18.29 5.29 19.47C5.29 20.66 4.33 21.62 3.15 21.62ZM11.01 5.88C9.83 5.88 8.87 4.92 8.87 3.74C8.87 2.55 9.83 1.59 11.01 1.59C12.2 1.59 13.16 2.55 13.16 3.74C13.16 4.92 12.2 5.88 11.01 5.88ZM11.01 13.75C9.83 13.75 8.87 12.79 8.87 11.6C8.87 10.42 9.83 9.46 11.01 9.46C12.2 9.46 13.16 10.42 13.16 11.6C13.16 12.79 12.2 13.75 11.01 13.75ZM11.01 21.62C9.83 21.62 8.87 20.66 8.87 19.47C8.87 18.29 9.83 17.33 11.01 17.33C12.2 17.33 13.16 18.29 13.16 19.47C13.16 20.66 12.2 21.62 11.01 21.62ZM18.88 5.88C17.7 5.88 16.74 4.92 16.74 3.74C16.74 2.55 17.7 1.59 18.88 1.59C20.07 1.59 21.03 2.55 21.03 3.74C21.03 4.92 20.07 5.88 18.88 5.88ZM18.88 13.75C17.7 13.75 16.74 12.79 16.74 11.6C16.74 10.42 17.7 9.46 18.88 9.46C20.07 9.46 21.03 10.42 21.03 11.6C21.03 12.79 20.07 13.75 18.88 13.75ZM18.88 21.62C17.7 21.62 16.74 20.66 16.74 19.47C16.74 18.29 17.7 17.33 18.88 17.33C20.07 17.33 21.03 18.29 21.03 19.47C21.03 20.66 20.07 21.62 18.88 21.62Z" />
</svg>