<svg version="1.2" baseProfile="tiny-ps" xmlns="http://www.w3.org/2000/svg" viewBox="0 0 18 18" width="18" height="18">
	<title>Shape 55</title>
	<style>
		tspan { white-space:pre }
		.shp0 { fill: #243f4d } 
	</style>
	<path id="Shape 55" class="shp0" d="M8.91 17.24C8.82 17.24 8.72 17.23 8.63 17.19C8.28 17.04 -0.02 13.44 -0.02 6.43C0.07 3.78 2.19 1.72 4.8 1.72C6.54 1.72 8.07 2.64 8.91 4.03C9.76 2.64 11.28 1.72 13.03 1.72C15.63 1.72 17.75 3.78 17.84 6.4C17.84 13.44 9.55 17.04 9.19 17.19C9.1 17.23 9.01 17.24 8.91 17.24ZM4.8 3.11C2.95 3.11 1.46 4.58 1.39 6.45C1.39 11.86 7.52 15.11 8.91 15.79C10.31 15.11 16.43 11.86 16.43 6.43C16.37 4.58 14.87 3.11 13.03 3.11C11.18 3.11 9.68 4.58 9.62 6.45C9.6 6.83 9.29 7.12 8.91 7.12L8.91 7.12C8.53 7.12 8.22 6.83 8.21 6.45C8.14 4.58 6.65 3.11 4.8 3.11Z" />
</svg>