<svg version="1.2" baseProfile="tiny-ps" xmlns="http://www.w3.org/2000/svg" width="19" height="17"><style/><path id="Shape 16" fill-rule="evenodd" d="M5.53 16.98a2.078 2.078 0 01-1.92-2.87 2.07 2.07 0 011.92-1.28c.55 0 1.07.21 1.46.6.4.4.61.92.61 1.47 0 .84-.5 1.59-1.27 1.92-.26.11-.53.16-.8.16zm0-2.97a.894.894 0 00-.63 1.52.894.894 0 001.52-.63c0-.24-.1-.46-.26-.63a.92.92 0 00-.63-.26zm8.39 2.97c-.54 0-1.07-.21-1.46-.61-.6-.59-.78-1.48-.46-2.26a2.08 2.08 0 011.92-1.28c.54-.04 1.08.22 1.47.6.39.4.6.92.6 1.47.01.84-.49 1.59-1.27 1.92-.26.11-.53.16-.8.16zm0-2.97c-.33.04-.68.22-.82.55-.14.34-.06.72.19.97.26.26.64.33.97.19.34-.14.55-.46.55-.82 0-.24-.09-.46-.26-.63a.92.92 0 00-.63-.26zm-11.27.17c-.09 0-.17-.02-.25-.06a.584.584 0 01-.29-.78c.58-1.24 1.63-1.98 3.05-2.16L4.11 5.79c-.06-.32.14-.63.47-.69.32-.07.63.15.69.47l1.09 5.57h9.43l1.8-6.77H4.29C2.16 4.37.32 2.79.01.68-.04.36.18.05.5.01c.32-.06.63.17.68.5a3.16 3.16 0 003.13 2.68h14.05c.19 0 .36.08.47.23.12.15.15.34.11.51l-2.13 7.96c-.07.26-.3.44-.57.44H5.86c-1.33 0-2.2.49-2.68 1.51-.1.21-.31.34-.53.34z" fill="#243f4d"/></svg>