<svg version="1.2" baseProfile="tiny-ps" xmlns="http://www.w3.org/2000/svg" width="22" height="23"><style/><path id="Ellipse 32" d="M3.15 5.88a2.145 2.145 0 11-.01-4.29 2.145 2.145 0 01.01 4.29zm0 7.87a2.145 2.145 0 11-.01-4.29 2.145 2.145 0 01.01 4.29zm0 7.87a2.145 2.145 0 11-.01-4.29 2.145 2.145 0 01.01 4.29zm7.86-15.74a2.145 2.145 0 11.01-4.29 2.145 2.145 0 01-.01 4.29zm0 7.87a2.145 2.145 0 11.01-4.29 2.145 2.145 0 01-.01 4.29zm0 7.87a2.145 2.145 0 11.01-4.29 2.145 2.145 0 01-.01 4.29zm7.87-15.74a2.145 2.145 0 11.01-4.29 2.145 2.145 0 01-.01 4.29zm0 7.87a2.145 2.145 0 11.01-4.29 2.145 2.145 0 01-.01 4.29zm0 7.87a2.145 2.145 0 11.01-4.29 2.145 2.145 0 01-.01 4.29z" fill="#fff"/></svg>