<svg version="1.2" baseProfile="tiny-ps" xmlns="http://www.w3.org/2000/svg" width="16" height="16"><style/><path id="icon" d="M3.7 6.08c.36-.07.68.13.75.48.09.58.35 1.07.78 1.49.42.39.94.68 1.49.78.33.06.55.39.49.74a.64.64 0 01-.72.51c-.81-.16-1.55-.54-2.14-1.13-.58-.58-.97-1.32-1.13-2.13-.07-.36.12-.68.48-.74zM6.98 0c3.47 0 6.28 2.8 6.28 6.25 0 .93-.2 1.81-.57 2.61l2.34 2.03c1.7 1.75.74 3.27.29 3.72-.42.45-1.99 1.41-3.73-.29l-2.06-2.35c-.78.34-1.64.54-2.55.54C3.51 12.51.7 9.71.7 6.25S3.51 0 6.98 0zm5.55 13.51c.29.33 1.12.87 1.88.23.21-.18.63-1.07-.23-1.87l-2.16-1.88c-.39.51-.84.96-1.37 1.34l1.88 2.18zM6.98 11.2c2.74 0 4.97-2.22 4.97-4.95S9.72 1.31 6.98 1.31c-2.74 0-4.97 2.21-4.97 4.94 0 2.73 2.23 4.95 4.97 4.95z" fill="#243f4d"/></svg>