<svg version="1.2" baseProfile="tiny-ps" xmlns="http://www.w3.org/2000/svg" width="22" height="22"><style/><path id="Forma 1" d="M20.45 17.8l-4.59-4.59a8.812 8.812 0 01-2.65 2.65l4.59 4.59c.73.73 1.92.73 2.65 0s.73-1.92 0-2.65zM16 8.5C16 4.36 12.64 1 8.5 1 4.36 1 1 4.36 1 8.5 1 12.64 4.36 16 8.5 16c4.14 0 7.5-3.36 7.5-7.5zm-7.5 5.62c-3.1 0-5.63-2.52-5.63-5.62S5.4 2.87 8.5 2.87s5.62 2.53 5.62 5.63-2.52 5.62-5.62 5.62zM4.12 8.5h1.25c0-1.72 1.41-3.13 3.13-3.13V4.12c-2.41 0-4.38 1.97-4.38 4.38z" fill="#a3bbc8"/></svg>